<svg xmlns="http://www.w3.org/2000/svg" viewBox="0 0 120 120">
  <g transform="translate(0.7567567,0.862216)">
    <path class="icon-svg" d="M 13.484429,84 H 1.4864866 V 22.329624 H 73.243246 V 84 H 38"/>
    <path class="icon-svg" d="m 108,84 h 9 V 51 L 106,35 H 77 v 49 h 7 m 5,-39 h 12 l 5,9 v 7 H 89 Z"/>
    <path class="icon-svg" d="M 107.56756,84.189186 A 11.756758,11.756758 0 0 1 95.810806,95.945944 11.756758,11.756758 0 0 1 84.054049,84.189186 11.756758,11.756758 0 0 1 95.810806,72.432428 11.756758,11.756758 0 0 1 107.56756,84.189186 Z m -70.135126,0 A 11.756758,11.756758 0 0 1 25.675676,95.945944 11.756758,11.756758 0 0 1 13.918919,84.189186 11.756758,11.756758 0 0 1 25.675676,72.432428 11.756758,11.756758 0 0 1 37.432434,84.189186 Z"/>
  </g>
</svg>
