<svg xmlns="http://www.w3.org/2000/svg" viewBox="0 0 120 120">
  <g>
    <path class="icon-svg" d="m 68.609398,12.853864 3.5,-6.0621775 m -24.5,42.4352445 3.5,-6.062178 m 23.905445,-23.905445 6.062178,-3.5 m -42.435244,24.5 6.062177,-3.5 m 6.405444,-23.905445 -3.5,-6.0621777 m 24.5,42.4352447 -3.5,-6.062178 m -23.905445,-23.905445 -6.062178,-3.5 m 42.435244,24.5 -6.062177,-3.5 M 42.359397,28.009308 h -7 m 49,0 h -7 m -17.5,17.5 v 7 m 0,-48.9999997 v 6.9999997 m 9.894068,17.5 a 9.8940678,9.8940678 0 0 1 -9.894068,9.894068 9.8940678,9.8940678 0 0 1 -9.894068,-9.894068 9.8940678,9.8940678 0 0 1 9.894068,-9.894068 9.8940678,9.8940678 0 0 1 9.894068,9.894068 z"/>
    <path class="icon-svg" d="m 76.996093,116.49539 c 15,-7 20,-9 38.999997,-14 m -66.999997,14 c 26,-15 44,-20.999998 66.999997,-25.999998 M 24.996093,116.49539 c 25,-20.999998 68,-35.999998 90.999997,-36.999998 M 3.9960931,116.49539 C 28.996093,85.495392 96.996093,66.495392 115.99609,67.495392"/>
    <path class="icon-svg" d="M 74.068359,75.866486 C 51.893383,66.041394 28.446697,57.592658 4.0039056,56.495392 M 55.998046,82.466095 C 39.403661,75.549524 22.064423,69.705278 4.0039056,68.495392 M 39.566405,89.98758 C 28.073467,85.384417 16.094112,82.098567 4.0039056,79.495392 M 25.591796,97.970001 C 18.537694,95.366064 11.265074,93.421648 4.0039056,91.495392"/>
  </g>
</svg>
