<svg xmlns="http://www.w3.org/2000/svg" viewBox="0 0 120 120">
  <g transform="translate(0,48)">
    <path class="icon-svg" d="m 39.472593,-44.596888 10.755613,6.23003 -6.337444,10.347547 m 6.337444,-10.347547 C 26.059007,-33.836995 8.5389584,-12.742044 8.5231286,11.847986 8.5389584,36.438016 26.059007,57.53297 50.228206,62.06283 m 30.299203,6.230033 -10.75562,-6.230033 6.33745,-10.347547 m -6.33745,10.347547 c 24.1692,-4.529863 41.689251,-25.624814 41.705081,-50.214844 -0.0158,-24.59003 -17.535881,-45.684983 -41.705081,-50.214838"/>
    <path class="icon-svg" d="m 72,-16 c -2,5 -5,9 -13,7 0.5,-7.5 7,-8 13,-7 z M 60,-2 c 0,-4 0,-7 -5,-14 M 82.019488,15.146371 C 86.860705,-3.0376576 70,-8 60.090396,-1.0987717 50,-8 33.188553,-3.6387738 38.085351,15.146371 43,34 52,40 60,34 c 8,6 17,0 22.019488,-18.853629 z"/>
  </g>
</svg>
