<svg xmlns="http://www.w3.org/2000/svg" viewBox="0 0 120 120">
  <g transform="translate(0,27)">
    <path class="icon-svg" d="M 58.230369,-0.7036177 69.85278,-4.9555203 M 70.552421,0.27025013 59.987266,4.0852382 M 78.112869,2.3585213 C 77.44284,4.606407 76.021418,6.360378 74.007372,7.0876288 69.979308,8.5421306 65.106178,5.3389606 63.122937,-0.06685166 61.139697,-5.4726648 62.797358,-11.034049 66.825428,-12.48855 c 2.014034,-0.727251 4.239334,-0.290082 6.209029,1.004622 m 14.432252,8.7834676 A 19.302067,19.302067 0 0 1 68.164642,16.601606 19.302067,19.302067 0 0 1 48.862576,-2.7004604 19.302067,19.302067 0 0 1 68.164642,-22.002527 19.302067,19.302067 0 0 1 87.466709,-2.7004604 Z"/>
    <path class="icon-svg" d="m 93.810747,40.762936 c 6.254053,3.869412 8.710243,2.233532 11.203303,-0.269958 2.49305,-2.503491 7.7369,-9.910422 4.85926,-16.06256 -2.87764,-6.152138 -12.606247,-3.152195 -9.85351,4.454323 2.75274,7.606518 10.61839,12.463106 15.92758,8.09877 M 43.033203,13.697266 c -2.70059,0.427285 -5.305864,1.0559 -7.792969,1.859375 -5.439867,-3.726202 -13.319444,-5.261568 -18.285156,-5.261719 -2.925774,-8.9e-5 -4.839769,0.532379 -4.648437,1.46289 4.387439,6.046274 5.920742,9.445922 6.859375,12.921876 -4.43754,4.060566 -7.622734,8.963548 -9.09375,14.357421 H 6.8828125 c -1.939,0 -3.5,1.561 -3.5,3.5 v 15.429688 c 0,1.939 1.561,3.5 3.5,3.5 h 7.3847655 c 1.96069,2.79287 4.429804,5.341417 7.3125,7.570312 1.362637,1.053589 2.822413,2.032476 4.359375,2.935547 L 22.943359,84.52344 c -0.450162,1.88602 1.561,3.5 3.5,3.5 h 11.34961 c 1.939,0 3.101584,-1.60238 3.5,-3.5 l 1.386719,-6.60547 c 2.87224,0.47443 5.848936,0.72851 8.904296,0.72851 3.967001,0 7.803242,-0.42956 11.445313,-1.21679 l 1.488281,7.09375 c 0.398416,1.89762 1.561,3.5 3.5,3.5 h 11.34961 c 1.939,0 3.950162,-1.61398 3.5,-3.5 L 79.525391,70.517578 c 0.706156,-0.478338 1.398922,-0.967392 2.0625,-1.480469 7.678601,-5.93708 12.427734,-14.139541 12.427734,-23.199218 0,-9.059678 -4.749133,-17.260187 -12.427734,-23.197266"/>
  </g>
</svg>
