<?xml version="1.0" encoding="UTF-8" standalone="no"?>
<!-- Created with Inkscape (http://www.inkscape.org/) -->

<svg
   xmlns:dc="http://purl.org/dc/elements/1.1/"
   xmlns:cc="http://creativecommons.org/ns#"
   xmlns:rdf="http://www.w3.org/1999/02/22-rdf-syntax-ns#"
   xmlns:svg="http://www.w3.org/2000/svg"
   xmlns="http://www.w3.org/2000/svg"
   xmlns:sodipodi="http://sodipodi.sourceforge.net/DTD/sodipodi-0.dtd"
   xmlns:inkscape="http://www.inkscape.org/namespaces/inkscape"
   width="780"
   height="780"
   viewBox="0 0 206.37499 206.375"
   version="1.1"
   id="svg8"
   inkscape:version="0.92.4 (5da689c313, 2019-01-14)"
   sodipodi:docname="logo.svg">
  <defs
     id="defs2" />
  <sodipodi:namedview
     id="base"
     pagecolor="#ffffff"
     bordercolor="#666666"
     borderopacity="1.0"
     inkscape:pageopacity="0.0"
     inkscape:pageshadow="2"
     inkscape:zoom="0.98994949"
     inkscape:cx="511.25089"
     inkscape:cy="337.98072"
     inkscape:document-units="mm"
     inkscape:current-layer="layer4"
     showgrid="false"
     inkscape:window-width="1699"
     inkscape:window-height="1056"
     inkscape:window-x="129"
     inkscape:window-y="0"
     inkscape:window-maximized="1"
     fit-margin-top="0"
     fit-margin-left="0"
     fit-margin-right="0"
     fit-margin-bottom="0"
     units="px">
    <inkscape:grid
       type="xygrid"
       id="grid973"
       originx="95.249984"
       originy="-21.162337" />
  </sodipodi:namedview>
  <metadata
     id="metadata5">
    <rdf:RDF>
      <cc:Work
         rdf:about="">
        <dc:format>image/svg+xml</dc:format>
        <dc:type
           rdf:resource="http://purl.org/dc/dcmitype/StillImage" />
        <dc:title></dc:title>
      </cc:Work>
    </rdf:RDF>
  </metadata>
  <g
     inkscape:label="ala sotto"
     id="g964"
     inkscape:groupmode="layer"
     transform="translate(95.249987,-69.46267)">
    <path
       inkscape:connector-curvature="0"
       id="path962"
       d="m -41.128968,102.57066 c 22.140504,24.41866 16.849775,54.53779 25.788827,71.93293 9.9281805,19.31995 53.352413,9.08699 31.647681,54.73531 C 62.933116,173.40406 -7.529546,115.61645 -41.128968,102.57066 Z"
       style="opacity:1;fill:#e94025;fill-opacity:1;fill-rule:evenodd;stroke:none;stroke-width:0.5291667;stroke-linecap:round;stroke-linejoin:round;stroke-miterlimit:4;stroke-dasharray:none;stroke-opacity:1"
       sodipodi:nodetypes="cscc" />
  </g>
  <g
     inkscape:groupmode="layer"
     id="layer2"
     inkscape:label="corpo ala sopra"
     transform="translate(95.249987,-69.46267)">
    <path
       style="opacity:1;fill:#ff7f6b;fill-opacity:1;fill-rule:evenodd;stroke:none;stroke-width:0.5291667;stroke-linecap:round;stroke-linejoin:round;stroke-miterlimit:4;stroke-dasharray:none;stroke-opacity:1"
       d="M 6.6145915,239.3608 C 39.687508,214.22539 43.402356,174.32586 53.648411,172.99065 c 7.151875,-0.93199 7.972166,7.11814 5.35523,13.96091 2.539061,-1.98373 5.345002,-3.8334 6.41408,-8.75709 18.753039,-5.49259 -5.256766,-10.31709 -2.539897,-41.33391 -6.51034,5.73906 -7.808965,15.88771 -6.835759,20.42407 -5.926826,-2.88242 -8.451996,-3.30782 -15.512748,-0.14262 -5.296866,-21.65524 -26.468563,-46.90124 -40.2698931,-55.89426 18.1717551,36.3249 -3.7499265,44.89939 -1.04748138,66.45227 2.70244538,21.55287 42.76907948,12.86675 17.09559748,61.53888 -0.432532,-3.10726 -1.755448,-0.46143 -4.401282,-0.46143 1.322917,3.96875 -2.6458332,7.9375 -5.2916665,10.58333 z M 59.342123,166.60034 c 0,0 4.031964,2.83497 3.590993,6.80372 0,0 -4.763907,-1.72945 -3.590993,-6.80372 z"
       id="rect955"
       inkscape:connector-curvature="0"
       sodipodi:nodetypes="csccccccscccccc" />
  </g>
  <g
     inkscape:groupmode="layer"
     id="layer4"
     inkscape:label="ghirigoro"
     transform="translate(95.249987,-69.46267)">
    <path
       id="path1088-3-8"
       style="fill:#aa4839;fill-opacity:1;stroke:none;stroke-width:0.26458329;stroke-linecap:butt;stroke-linejoin:miter;stroke-miterlimit:4;stroke-dasharray:none;stroke-opacity:1"
       d="m -55.929864,239.72203 c -9.123377,-8.49757 -15.945841,-19.50082 -20.869303,-31.35867 -4.923468,-11.85784 -7.646035,-24.89487 -7.646035,-38.57968 0,-54.7392 41.18471,-95.960315 94.811752,-92.550908 53.133458,3.378027 92.21425,39.950418 92.21425,94.689618 0,13.68481 -2.722579,26.72184 -7.646039,38.57968 -4.92347,11.85785 -12.04783,22.53651 -20.85142,31.50457 -8.8036,8.96805 -25.10661,18.73323 -30.92681,21.24096 -5.82019,2.50772 -22.509559,6.29841 -30.190852,1.08192 -7.6812957,-5.21653 -15.2699075,-2.44155 -15.4407059,0.82816 -0.1707983,-1.98438 10.4125351,-1.98438 18.3500349,3.30729 7.9375,5.29167 25.183535,1.44634 31.197854,-1.0975 6.014319,-2.54385 22.861107,-12.44968 31.958338,-21.54691 9.097231,-9.09723 16.459224,-19.9297 21.54691,-31.95834 5.08768,-12.02864 7.90106,-25.25344 7.90106,-39.13535 0,-55.52762 -45.014036,-100.541659 -100.5416591,-100.541659 -55.5276229,2e-6 -100.5416569,45.014039 -100.5416569,100.541659 0,13.88191 2.813377,27.10671 7.901062,39.13535 5.087684,12.02864 12.137706,23.19038 21.565388,31.81035 31.083479,28.42042 65.5945494,-1.20909 69.5553423,-6.38813 -3.7839008,4.15936 -32.2673373,28.45445 -62.3475103,0.43759 z"
       inkscape:connector-curvature="0"
       sodipodi:nodetypes="sssssscsccscssssssscs" />
  </g>
</svg>
