<?xml version='1.0' encoding='utf-8'?>
<svg xmlns="http://www.w3.org/2000/svg" version="1.1" width="600px" height="976px" viewBox="0 0 600 976"> <g id="layer1"> <g style="fill:rgb(0,0,0); fill-opacity:1.0; stroke-linejoin: miter"> </g> <g style="fill:rgb(0,0,0); fill-opacity:1.0; stroke-linejoin: miter"> </g> <g style="fill:rgb(0,0,0); fill-opacity:1.0; stroke-linejoin: miter"> <path d="M387.43744,428.52133L387.4412,428.52228C386.023,429.87524,385.55106,430.3444,385.2196,430.40875C385.19186,430.41412,385.16513,430.4167,385.13892,430.4167C385.1033,430.4167,385.06863,430.412,385.0337,430.40326C384.899,430.36966,384.76074,430.27646,384.5512,430.16403C383.54712,429.62097,383.30484,429.52618,383.75433,429.13678L383.7506,429.13583Q384.66168,428.97656,385.5775,428.82266Q386.51416,428.66815,387.43744,428.52133 Z M395.94604,427.2956L395.9499,427.29654C396.07114,427.61392,396.1886,427.89038,396.2937,428.09924C396.4719,428.46417,396.4719,428.46417,395.70615,429.10028C395.27368,429.4523,394.62375,430.0425,394.24588,430.4218L393.56543,431.11688L393.235,429.71194C393.0799,429.08545,392.8907,428.2715,392.76404,427.72437L392.7602,427.72342Q394.37537,427.49664,395.94604,427.2956 Z M390.2699,428.8737C390.2713,428.8737,390.2728,428.8739,390.27432,428.87427C390.32587,428.88712,390.43494,429.11337,390.5307,429.38513C390.63568,429.6888,390.8196,430.69836,390.96634,431.64014C391.14706,432.97302,391.17572,433.53894,391.08524,434.2011C391.01227,434.68597,390.92175,435.07477,390.88565,435.0818L390.8856,435.0818C390.8851,435.08188,390.88455,435.0819,390.884,435.0819C390.88287,435.0819,390.88162,435.08176,390.88028,435.08142C390.83472,435.07007,390.6662,434.86035,390.49866,434.5935C390.06464,433.91522,389.08313,432.8896,388.19678,432.1819L387.4689,431.59433L387.7201,431.3375C388.67325,430.36945,390.19073,428.88916,390.26385,428.87497C390.26385,428.87497,390.26392,428.87494,390.26392,428.87494C390.2649,428.8745,390.26596,428.87418,390.26703,428.87396C390.26797,428.87378,390.26892,428.8737,390.2699,428.8737 Z M376.39084,430.5276L376.39453,430.5285C374.5117,431.86407,373.04123,433.47778,372.40976,434.94623C372.28845,435.227,372.15234,435.42633,372.07202,435.4419C372.06857,435.44254,372.06525,435.44287,372.06204,435.44287C372.05862,435.44287,372.05533,435.4425,372.0522,435.4417C372.04767,435.44055,372.04346,435.43866,372.0395,435.4359C371.82635,435.28845,371.48068,434.20905,371.36462,433.299C371.305,432.81982,371.2948,432.24612,371.33066,431.61218L371.32703,431.61127Q373.8393,431.04718,376.39084,430.5276 Z M397.26727,431.0909C397.27612,431.0909,397.28445,431.09192,397.29242,431.0939C397.35577,431.1097,397.39423,431.18777,397.4508,431.31546C397.61697,431.68253,397.51257,433.01776,397.2408,433.91156C396.96368,434.84363,396.47223,435.6906,395.74265,436.4568C395.46594,436.7508,395.2835,436.9143,395.15375,436.9395C395.1419,436.9418,395.13052,436.94293,395.11957,436.94293C395.1076,436.94293,395.09616,436.9416,395.08514,436.93884C394.96246,436.9082,394.8943,436.70746,394.82483,436.326C394.5074,434.58337,395.17868,432.7476,396.61285,431.55505C396.962,431.2573,397.13477,431.11432,397.24136,431.09354C397.25046,431.0918,397.25906,431.0909,397.26727,431.0909 Z M381.12515,430.69894C381.23306,430.69894,381.34003,430.71408,381.4553,430.74283C381.5886,430.77606,381.73303,430.82758,381.90298,430.89484C382.27893,431.04987,382.59473,431.21585,382.60352,431.26392C382.61072,431.30344,382.64294,431.33304,382.6881,431.3443C382.7011,431.34753,382.71515,431.34924,382.72998,431.34924C382.742,431.34924,382.75452,431.3481,382.7674,431.3458C382.77167,431.34503,382.7766,431.34464,382.7822,431.34464C382.801,431.34464,382.82703,431.34894,382.8587,431.35684C382.97668,431.38626,383.17297,431.46576,383.36508,431.55972L383.82843,431.7857L382.92847,432.70703C382.44788,433.2044,381.70416,434.09723,381.30115,434.67975C380.49084,435.82068,379.34103,437.89276,379.38266,438.12103C379.41812,438.31543,379.33096,438.42853,379.06268,438.48065C378.93863,438.50473,378.77588,438.5158,378.56857,438.5158C378.44818,438.5158,378.31277,438.51205,378.16122,438.505C377.48288,438.46466,376.3125,438.25415,375.52826,438.05853C375.0646,437.94287,374.73593,437.83246,374.72375,437.7655C374.71277,437.70538,374.79892,437.2923,374.91458,436.83667C375.48523,434.5846,377.15076,432.6173,379.62726,431.2846C380.2243,430.95914,380.5855,430.7816,380.89227,430.72205C380.97253,430.70645,381.04907,430.69894,381.12515,430.69894 Z M392.67627,437.57007C392.68005,437.57007,392.6838,437.57053,392.6875,437.5714C392.6941,437.57306,392.7005,437.57617,392.7067,437.58093C392.75146,437.6225,392.86737,437.84967,392.9472,438.08344C393.0818,438.48114,393.06433,438.5216,392.76172,438.70087C392.65085,438.76172,392.57684,438.79944,392.52515,438.80945C392.5159,438.81125,392.50735,438.81216,392.49945,438.81216C392.49216,438.81216,392.48538,438.8114,392.4791,438.8098C392.4255,438.79645,392.4061,438.7254,392.3804,438.58405C392.32043,438.25507,392.5215,437.59918,392.66678,437.57098C392.66995,437.57037,392.67313,437.57007,392.67627,437.57007 Z M385.88754,433.13773C385.8974,433.13773,385.90897,433.1394,385.922,433.14264C386.03485,433.17084,386.2588,433.3155,386.4611,433.49146C387.1715,434.11945,388.61322,435.9676,389.17847,436.95728L389.69232,437.8694L389.45648,438.34692C389.03528,439.16827,387.7281,441.11853,387.58282,441.1468C387.5827,441.1468,387.58264,441.1468,387.58252,441.14685C387.57892,441.1475,387.57486,441.14783,387.57043,441.14783C387.5591,441.14783,387.54517,441.14572,387.52887,441.14166C387.4026,441.11017,387.13654,440.96112,386.87988,440.7658C385.8009,440.0019,384.1891,439.2835,382.83417,438.94556C382.5601,438.87714,382.29648,438.8244,382.04993,438.78992C381.8833,438.7685,381.71436,438.73425,381.5879,438.7027C381.50204,438.68127,381.43576,438.66107,381.4031,438.64697C381.0286,438.42987,385.23108,433.26392,385.87366,433.13904C385.8742,433.13892,385.87482,433.1388,385.87537,433.13873C385.87906,433.13806,385.88315,433.13773,385.88754,433.13773 Z M380.80045,441.30737C380.8051,441.30737,380.8098,441.30792,380.81448,441.30908C380.81653,441.30963,380.81854,441.31024,380.8206,441.31097C380.82617,441.31342,380.83963,441.31726,380.85995,441.32233C380.9866,441.35394,381.38,441.4334,381.80182,441.5171C381.94492,441.54645,382.09558,441.58105,382.2495,441.61945C383.30286,441.8822,384.5076,442.32208,384.4571,442.46124C384.432,442.5279,384.2408,442.6372,384.03323,442.72473C383.55804,442.91058,382.2855,443.62677,381.3962,444.19843C380.99585,444.45313,380.76056,444.59967,380.61917,444.62714C380.60303,444.63025,380.58807,444.63184,380.57425,444.63184C380.5613,444.63184,380.54938,444.63046,380.53833,444.6277C380.4176,444.5976,380.40378,444.40173,380.38336,444.0229C380.31076,442.90552,380.54706,441.35547,380.78912,441.30847C380.7929,441.30774,380.79666,441.30737,380.80045,441.30737 Z M374.9198,440.47385C374.94266,440.47385,375.37515,440.55493,375.89603,440.656C376.41177,440.7608,377.16672,440.88385,377.5612,440.93622C377.77884,440.9693,377.97604,441.00616,378.11414,441.0406C378.23538,441.07086,378.31107,441.0993,378.31522,441.12177C378.3239,441.1698,378.29242,441.7467,378.23807,442.40234C378.19562,443.0556,378.1718,443.8794,378.1829,444.2127C378.20105,444.61926,378.19147,444.7583,378.10202,444.7757C378.09537,444.77698,378.08826,444.7776,378.08072,444.7776C378.06387,444.7776,378.04474,444.77457,378.02307,444.76917C378.01093,444.7661,377.998,444.7624,377.98422,444.758C377.15356,444.4876,374.3601,440.5849,374.91736,440.47424L374.91827,440.47406C374.91858,440.474,374.91885,440.47394,374.9191,440.47388C374.91925,440.47385,374.9195,440.47385,374.9198,440.47385 Z M394.00977,441.22983C394.011,441.22983,394.0122,441.22998,394.0135,441.2303C394.06516,441.24316,394.18344,441.5177,394.2793,441.85138C394.89734,443.81238,394.38367,446.5135,393.02408,448.5243C392.41534,449.40424,391.205,450.79022,390.99878,450.83026C390.99854,450.83038,390.99835,450.83038,390.9981,450.83044C390.99747,450.83057,390.99683,450.83063,390.9962,450.83063C390.99542,450.83063,390.99466,450.83054,390.99393,450.83032C390.9519,450.81982,390.98248,450.5111,391.0798,450.12018C391.4202,448.71716,391.44284,447.6825,391.17572,446.35278L390.91638,445.1336L391.60193,443.58087C392.20026,442.23016,392.3455,442.00507,392.71252,441.83887C392.9398,441.72296,393.30682,441.5567,393.52423,441.45508C393.73834,441.34186,393.95465,441.2406,394.00418,441.23102C394.0044,441.23096,394.00464,441.2309,394.00482,441.23083C394.0057,441.23047,394.0066,441.23016,394.0075,441.23004C394.00824,441.2299,394.009,441.22983,394.00977,441.22983 Z M385.17868,444.95334C385.18552,444.95334,385.1914,444.954,385.19653,444.95526C385.21896,444.96088,385.226,444.9782,385.2304,445.00226C385.23917,445.05035,385.11588,445.3957,384.96082,445.7716C384.62137,446.5661,383.8607,449.1383,383.5192,450.60358C383.38513,451.16156,383.24554,451.62146,383.19736,451.6308C383.19736,451.6308,383.19733,451.63077,383.1973,451.63077C383.1973,451.63077,383.19727,451.63077,383.19727,451.6308C383.19656,451.63092,383.19586,451.63098,383.1951,451.63098C383.19403,451.63098,383.19287,451.63086,383.19168,451.63055C383.1398,451.61755,383.01587,451.32648,382.90204,450.96442C382.5914,449.9408,382.1332,448.9936,381.58118,448.2126C381.3123,447.82703,381.10236,447.49268,381.11218,447.47852C381.13184,447.45013,381.38968,447.2293,381.67688,446.96588C382.329,446.3877,383.1865,445.84656,384.2396,445.3567C384.80362,445.08508,385.0422,444.97717,385.14636,444.9569C385.159,444.95447,385.16965,444.95334,385.17868,444.95334 Z M379.4846,450.4916C379.48495,450.4916,379.48532,450.49167,379.4857,450.49176C379.48666,450.492,379.48764,450.4926,379.48856,450.4936C379.53122,450.52307,379.7424,451.4779,379.97443,452.61523C380.12326,453.34482,380.25137,454.0729,380.32562,454.56332L380.3218,454.56332C380.21393,454.6136,380.1138,454.6686,380.02133,454.7284C379.5905,453.67572,379.28345,452.1244,379.3577,451.2749C379.3856,450.84503,379.451,450.49805,379.48367,450.4917C379.48398,450.49164,379.48428,450.4916,379.4846,450.4916 Z M388.85602,448.36554C388.85956,448.36554,388.86304,448.36597,388.86646,448.36682C388.92923,448.38245,388.97406,448.54187,388.96518,448.80432C388.9643,449.41296,388.5507,450.75476,387.9753,452.0268C387.60968,452.84106,386.98328,454.07397,386.54034,454.885C386.51624,454.87115,386.49094,454.85675,386.46426,454.84167C386.34897,454.7793,386.22946,454.7196,386.11526,454.66705L386.11142,454.66614C386.2526,453.61346,386.5158,452.1092,386.63135,451.87433C387.07455,451.03638,388.739,448.38745,388.84802,448.36627L388.8481,448.36627C388.85077,448.36578,388.8534,448.36554,388.85602,448.36554 Z M381.3423,370.2062C381.32318,370.2062,381.30667,370.20642,381.2929,370.20685C381.1664,370.2106,380.73615,370.22443,380.3316,370.22946C376.05582,370.3335,371.9197,371.4857,368.6716,373.47592C366.88327,374.56888,365.17212,376.03958,363.8599,377.61636C362.1448,379.6682,360.8899,382.1221,360.22858,384.72708C359.8077,386.36847,359.79562,387.41403,360.18375,388.5454L360.29816,388.88464L359.9359,389.35663C359.33585,390.1352,358.4769,391.13824,356.85446,392.95724C354.25208,395.87427,353.36368,396.96182,352.73462,398.01678C352.23245,398.86078,352.0739,399.3987,352.18237,399.859C352.31567,400.4267,352.73453,400.84186,353.81012,401.46176C354.25958,401.7196,354.45828,401.81805,354.69113,401.87616C354.73828,401.8879,354.7868,401.898,354.83908,401.90744C355.03537,401.94476,355.20963,401.98215,355.36438,402.02075C356.00656,402.18094,356.31293,402.36243,356.46948,402.65128C356.60382,402.89557,356.56982,403.17184,356.34186,403.78708C356.23114,404.0797,356.11823,404.41782,356.0967,404.54294C356.03143,404.83786,355.89264,405.08362,355.53784,405.51062C355.1022,406.0345,355.0014,406.23157,354.99,406.55948C354.9761,407.039,355.20667,407.37897,355.9872,408.03967C356.157,408.17957,356.30603,408.33365,356.319,408.3747C356.36285,408.5083,356.19446,408.74237,355.73193,409.19934C355.2902,409.6422,355.14856,409.84738,355.137,410.07913C355.12738,410.2707,355.18335,410.36444,355.72458,411.05872C356.36554,411.88428,356.5936,412.37595,356.6005,412.94217C356.60117,413.3314,356.59457,413.36133,356.07904,414.67487C355.3319,416.57288,355.16263,417.3276,355.3174,418.0732C355.5088,418.9924,356.4599,420.18225,357.4762,420.779C357.94266,421.05,358.2689,421.19778,358.84097,421.37805L359.2886,421.5218L363.6478,421.76563L368.0024,422.00406L368.18774,422.2357C368.42996,422.54602,368.81882,423.46002,369.0235,424.21826C369.03568,424.26273,369.04776,424.3079,369.0598,424.35376L369.0635,424.35376Q369.08447,424.4005,369.09528,424.4339Q369.1075,424.47394,369.1224,424.5415Q369.13666,424.60187,369.17203,424.79095Q369.18307,424.84415,369.1939,424.8817Q369.20682,424.9277,369.22513,424.97217L369.28223,425.09723Q369.29315,425.1251,369.30035,425.15326L369.30405,425.15326Q369.32492,425.20428,369.34763,425.27197Q369.35382,425.29156,369.35718,425.31067Q369.3719,425.42212,369.37958,425.4556L369.4067,425.5522Q369.4136,425.5783,369.41904,425.60764L369.4327,425.69177L369.43307,425.6929Q369.43225,425.69598,369.4752,425.79196Q369.47916,425.80347,369.48148,425.81583L369.4861,425.81583L369.4797,426.00848L369.4843,426.00848Q369.4843,426.01297,369.4837,426.01678L369.4789,426.03223L369.23257,433.434L369.66608,435.9469L369.66977,435.9469C370.0741,436.79395,370.6034,437.51743,371.33902,438.27032C371.81226,438.7552,371.9402,438.9803,372.1295,439.6784C372.68298,441.76288,374.80695,444.7657,377.22122,446.90845L377.88687,447.49493L377.61066,448.09167C376.84744,449.6958,377.23294,452.2207,378.78012,455.60175C378.95963,455.99542,379.12103,456.36017,379.26575,456.7025L379.262,456.7025C379.29688,457.85324,379.37585,459.19052,379.4624,460.20343C379.67496,462.70538,379.73175,465.1808,379.58493,465.80066C379.54907,465.93945,379.53497,466.0714,379.54907,466.09082C379.55048,466.09314,379.55322,466.0948,379.55722,466.09576C379.56033,466.09653,379.56418,466.09692,379.56873,466.09692C379.62537,466.09692,379.7911,466.0386,379.9812,465.95837C380.80933,465.58762,381.66943,465.40262,382.54654,465.40262C383.07477,465.40262,383.6092,465.46973,384.14648,465.60376C384.60425,465.7179,385.06412,465.88068,385.52408,466.09192L386.1753,466.38818L386.14755,466.01056C386.10147,465.2843,386.1373,464.84283,386.37827,463.4364C386.68265,461.6526,386.9926,459.714,387.1904,458.3932L387.18658,458.3922C387.24658,458.2494,387.31006,458.10162,387.37753,457.94672C388.30112,455.79175,389.4729,454.11316,390.8164,453.03638C392.126,451.97833,394.83258,449.2503,395.4223,448.39783C396.04144,447.5027,396.64304,446.2384,396.8722,445.31506C397.01843,444.75452,396.99866,444.50983,396.60236,442.33453L396.17325,439.97913L396.62866,439.54846C397.44897,438.80304,398.74197,436.9037,399.1579,435.847C399.38058,435.2973,399.63153,434.35754,399.73077,433.74353C399.87897,432.78522,399.87344,432.41376,399.67413,431.047L399.4452,429.44977L399.4691,429.4323L398.81403,426.09723L398.8177,426.09723L398.81384,426.09628L398.8173,426.09628C398.6084,425.5936,398.42673,425.1148,398.27533,424.6703L398.2686,424.6686C398.06818,422.83228,398.0345,422.4775,397.95624,421.49924C397.91272,420.95627,397.8624,420.34726,397.84164,420.15424C397.74847,419.0883,397.67398,416.9468,397.68338,415.64844C397.7045,413.91617,398.00168,412.82928,398.88394,411.26138C399.4945,410.16992,399.941,409.5304,401.42258,407.59824C403.53647,404.84912,403.82843,404.36844,404.69128,402.279C406.13474,398.78836,406.87775,395.35873,406.93024,391.99554C406.98328,388.3138,406.13757,384.8197,404.46384,381.8148C401.59378,376.66245,396.42145,372.97675,389.67365,371.2892C389.61295,371.27386,389.55325,371.2589,389.49435,371.24423C388.04886,370.88367,387.0846,370.70404,385.47357,370.48737C384.86633,370.40317,381.92038,370.2062,381.3423,370.2062 Z M382.6376,465.94986C381.66,465.94986,380.6944,466.15552,379.83963,466.55676L379.52737,466.70313L379.29538,467.69647C378.99896,468.9651,378.99326,469.17413,379.28714,469.57513C379.34586,469.6601,379.43124,469.88013,379.4715,470.07056C379.54544,470.4057,379.68866,470.6194,380.01105,470.896L380.17926,471.03796L380.31924,470.69904C380.48907,470.2909,380.6551,470.12305,381.0737,469.935C381.37427,469.79904,381.7748,469.7311,382.24548,469.7311C382.64258,469.7311,383.08954,469.77945,383.56845,469.8761C383.67218,469.8971,383.75937,469.9159,383.8368,469.93518C384.08652,469.9975,384.2346,470.06476,384.5071,470.22498C384.96652,470.49414,385.15546,470.7013,385.27686,471.07324L385.3384,471.28082L385.55118,471.19775C385.89682,471.06866,386.1469,470.75067,386.21527,470.37457C386.23376,470.26917,386.31424,470.04462,386.39142,469.8728C386.53058,469.5819,386.53113,469.54596,386.43243,468.95575C386.37048,468.62085,386.28854,468.03333,386.24182,467.64575L386.15903,466.95483L385.67752,466.71667C385.41064,466.57788,385.1125,466.44098,385.017,466.40344C384.82315,466.32574,384.47913,466.22565,384.14832,466.14313C383.87213,466.07422,383.60516,466.01758,383.4426,465.99646C383.1747,465.9653,382.90573,465.94986,382.6376,465.94986 Z M382.30347,469.95993C381.50546,469.95993,380.86368,470.1844,380.55145,470.60193C380.47043,470.71106,380.3711,471.21637,380.13757,472.75995C379.9662,473.86948,379.68216,475.71967,379.50046,476.87238C379.23364,478.54984,379.18314,479.00797,379.2336,479.1553C379.27042,479.25925,379.4208,479.47067,379.56973,479.62674C380.6896,480.81448,381.54837,482.56277,381.96167,484.5273C382.09824,485.1614,382.1627,485.34024,382.277,485.3997C382.28452,485.40366,382.2915,485.40665,382.298,485.4083C382.30142,485.40915,382.30472,485.4096,382.30786,485.4096C382.36703,485.4096,382.38275,485.24695,382.4268,484.4362C382.4539,483.94174,382.52115,482.72958,382.58005,481.74307C382.79965,478.04904,382.79483,478.34933,382.65707,478.10208C382.4049,477.64407,382.5873,476.89746,382.98322,476.77637C383.02975,476.76135,383.07468,476.75427,383.11768,476.75427C383.14966,476.75427,383.1806,476.75818,383.21036,476.76563C383.64804,476.87482,383.8363,477.74594,383.41458,478.2054C383.27524,478.35696,383.2646,478.4241,383.18585,479.7515C383.04727,481.9739,382.85992,485.00046,382.85635,485.07742C382.85403,485.10782,382.83453,485.12598,382.81094,485.12598C382.80707,485.12598,382.80307,485.1255,382.799,485.12448C382.7947,485.12338,382.79037,485.12173,382.786,485.11948C382.77322,485.11282,382.75723,485.1072,382.7397,485.10287C382.71216,485.09598,382.68088,485.09213,382.65237,485.09213C382.64474,485.09213,382.63733,485.0924,382.63022,485.093C382.40887,485.11105,382.63425,485.59756,383.09232,486.10208C383.69693,486.75558,385.4301,487.90506,387.26236,488.86386C388.84213,489.69138,389.67056,490.01926,391.54102,490.54385C391.71472,490.59366,391.85248,490.6318,391.96365,490.65952C392.12494,490.69974,392.23032,490.71802,392.30853,490.71802C392.39386,490.71802,392.4469,490.6963,392.50497,490.65762C392.7576,490.4863,392.76462,490.1932,392.53052,489.65378C392.17615,488.8217,391.60526,488.16165,390.30325,487.09103C389.25507,486.23117,388.35092,485.3735,388.3955,485.2878C388.3963,485.2863,388.40524,485.28558,388.42142,485.28558C388.50766,485.28558,388.79883,485.3062,389.1443,485.33804C390.7849,485.49048,391.9905,485.56332,392.93304,485.56332C393.4238,485.56332,393.84326,485.54358,394.21567,485.50504C394.58627,485.46768,395.14288,485.36362,395.4471,485.26755C396.54797,484.93185,396.96014,484.39536,396.82797,483.48508C396.76114,483.0084,396.42963,482.40018,395.66077,481.34048C395.06372,480.50925,394.91852,480.27628,394.80624,479.93344C394.64795,479.4576,394.68378,479.1674,394.92343,478.90457C395.20218,478.60153,395.62503,478.45212,396.8029,478.25943C398.20236,478.02444,398.87646,477.78775,399.56195,477.28458C400.1525,476.85904,400.27515,476.70486,400.69138,475.90414C401.10025,475.1179,401.2246,474.7042,401.26233,473.99136C401.2788,473.70084,401.25668,473.48474,401.2153,473.47443C401.21426,473.47415,401.21323,473.47403,401.21216,473.47403C401.20413,473.47403,401.1954,473.4816,401.18613,473.49762C401.1663,473.5357,401.12036,473.70554,401.0841,473.86826C400.97272,474.37338,400.68933,474.97678,400.3906,475.33005C399.70743,476.14328,398.81143,476.58548,396.97406,477.01047C395.2211,477.41263,394.49954,477.61258,394.1845,477.7878C393.90576,477.93954,393.85452,477.9916,393.71072,478.26797C393.37857,478.90646,393.51224,479.418,394.45816,481.12674C395.37372,482.77737,395.52698,483.26273,395.3139,483.82394C395.18842,484.15823,394.83594,484.4169,394.28314,484.58353C393.86563,484.70972,393.4416,484.77304,392.90207,484.77304C392.2998,484.77304,391.55365,484.69412,390.51196,484.53568C389.12024,484.32193,388.60037,484.2618,388.02637,484.2618C387.95294,484.2618,387.87863,484.2628,387.8015,484.26456C387.30164,484.27103,387.1349,484.3356,387.02087,484.55484C386.78787,485.00272,387.63153,486.0469,389.41977,487.50955C389.8252,487.8475,390.34634,488.31216,390.57565,488.54648C391.03186,489.0198,391.40604,489.51108,391.36887,489.5825C391.356,489.60736,391.3396,489.62122,391.32925,489.62122C391.3284,489.62122,391.32758,489.62112,391.3268,489.62094C391.32617,489.62076,391.3256,489.62057,391.32498,489.62027C391.31998,489.61765,391.2598,489.60147,391.16757,489.57846C391.08475,489.55777,390.9761,489.53165,390.85837,489.5048C390.83273,489.49863,390.80713,489.49234,390.78146,489.48593C389.0049,489.04282,387.05334,488.00253,383.47757,485.5941L383.03305,485.29642L383.3954,484.2618C383.84604,482.9644,384.2734,482.07266,384.80463,481.2955C385.47852,480.314,385.4709,480.34024,385.3734,479.51456C385.1857,477.87314,385.1042,475.4454,385.1526,472.84906C385.1644,472.1045,385.16803,471.4223,385.1551,471.3308C385.14938,471.23706,385.05615,471.0553,384.9501,470.9215C384.69653,470.60675,384.02634,470.2426,383.4283,470.09344C383.39285,470.0846,383.3576,470.07654,383.32275,470.0692C382.96545,469.9957,382.622,469.95993,382.30347,469.95993 Z"/> </g> <g style="fill:rgb(0,0,0); fill-opacity:1.0; stroke-linejoin: miter"> </g> </g> </svg>