<?xml version="1.0" encoding="UTF-8" standalone="no"?>
<!-- Created with Inkscape (http://www.inkscape.org/) -->

<svg
   xmlns:dc="http://purl.org/dc/elements/1.1/"
   xmlns:cc="http://creativecommons.org/ns#"
   xmlns:rdf="http://www.w3.org/1999/02/22-rdf-syntax-ns#"
   xmlns:svg="http://www.w3.org/2000/svg"
   xmlns="http://www.w3.org/2000/svg"
   xmlns:sodipodi="http://sodipodi.sourceforge.net/DTD/sodipodi-0.dtd"
   xmlns:inkscape="http://www.inkscape.org/namespaces/inkscape"
   width="780"
   height="780"
   viewBox="0 0 206.37499 206.375"
   version="1.1"
   id="svg8"
   inkscape:version="0.92.4 (5da689c313, 2019-01-14)"
   sodipodi:docname="logo.svg">
  <defs
     id="defs2" />
  <sodipodi:namedview
     id="base"
     pagecolor="#ffffff"
     bordercolor="#666666"
     borderopacity="1.0"
     inkscape:pageopacity="0.0"
     inkscape:pageshadow="2"
     inkscape:zoom="0.35"
     inkscape:cx="711.42857"
     inkscape:cy="480"
     inkscape:document-units="mm"
     inkscape:current-layer="layer4"
     showgrid="false"
     inkscape:window-width="1699"
     inkscape:window-height="1056"
     inkscape:window-x="129"
     inkscape:window-y="0"
     inkscape:window-maximized="1"
     fit-margin-top="0"
     fit-margin-left="0"
     fit-margin-right="0"
     fit-margin-bottom="0"
     units="px">
    <inkscape:grid
       type="xygrid"
       id="grid973"
       originx="95.249984"
       originy="-21.162337" />
  </sodipodi:namedview>
  <metadata
     id="metadata5">
    <rdf:RDF>
      <cc:Work
         rdf:about="">
        <dc:format>image/svg+xml</dc:format>
        <dc:type
           rdf:resource="http://purl.org/dc/dcmitype/StillImage" />
        <dc:title></dc:title>
      </cc:Work>
    </rdf:RDF>
  </metadata>
  <g
     inkscape:label="ala sotto"
     id="g964"
     inkscape:groupmode="layer"
     transform="translate(95.249987,-69.46267)"
     sodipodi:insensitive="true">
    <path
       inkscape:connector-curvature="0"
       id="path962"
       d="m -41.128968,102.57066 c 22.140504,24.41866 16.849775,54.53779 25.788827,71.93293 9.9281805,19.31995 53.352413,9.08699 31.647681,54.73531 C 62.933116,173.40406 -7.529546,115.61645 -41.128968,102.57066 Z"
       style="opacity:1;fill:#e94025;fill-opacity:1;fill-rule:evenodd;stroke:none;stroke-width:0.5291667;stroke-linecap:round;stroke-linejoin:round;stroke-miterlimit:4;stroke-dasharray:none;stroke-opacity:1"
       sodipodi:nodetypes="cscc" />
  </g>
  <g
     inkscape:groupmode="layer"
     id="layer2"
     inkscape:label="corpo ala sopra"
     transform="translate(95.249987,-69.46267)"
     sodipodi:insensitive="true">
    <path
       style="opacity:1;fill:#ff7f6b;fill-opacity:1;fill-rule:evenodd;stroke:none;stroke-width:2.00000024;stroke-linecap:round;stroke-linejoin:round;stroke-miterlimit:4;stroke-dasharray:none;stroke-opacity:1"
       d="m 360.98047,120.13281 c 68.68065,137.29096 -14.17295,169.6985 -3.95899,251.15821 10.1401,80.87053 159.41897,49.13848 66.63477,228.66992 -1.36226,-0.057 -3.134,0.14018 -5.37109,0.54492 -9.13296,1.65226 -11.03776,4.75446 -20.62696,2.28125 0.77052,9.87292 -10.52264,26.86129 -16.09765,34.54492 -0.0211,0.0302 -0.0262,0.0396 -0.0469,0.0664 -0.66463,0.0302 -1.4429,0.33909 -2.13281,0.91797 -0.96874,0.81282 -1.45076,1.88852 -1.29102,2.67968 l 29.41407,-24.67968 c -0.0716,-0.40464 0.0782,-0.81777 0.39257,-1.08203 0.48702,-0.40857 1.21429,-0.34581 1.62305,0.14062 0.40856,0.48737 0.34449,1.21433 -0.14258,1.62305 -0.31487,0.2623 -0.74557,0.33748 -1.13086,0.19726 l -29.41601,24.68164 c 0.75248,0.29254 1.89443,0.009 2.86328,-0.80468 0.74168,-0.6223 1.2016,-1.40149 1.30664,-2.08789 8.62914,-4.06697 27.28073,-12.21215 36.85742,-9.74219 -0.7705,-9.87288 2.61503,-11.21047 5.82813,-19.91797 1.19485,-3.23791 1.7377,-5.51271 1.48242,-7.01172 30.60071,-34.65573 55.61318,-77.1433 75.02734,-115.79883 25.99606,-51.97391 41.20769,-92.70335 60.57031,-95.22656 27.03071,-3.52248 30.13102,26.90319 20.24024,52.76562 9.59645,-7.49756 20.20158,-14.48843 24.24219,-33.09765 70.87762,-20.7594 -19.86809,-38.99373 -9.59961,-156.22266 -24.60601,21.69094 -29.5142,60.04806 -25.83594,77.19336 C 549.4119,321.0316 539.86795,319.42376 513.18164,331.38672 493.16199,249.54014 413.14298,154.12218 360.98047,120.13281 Z m 223.30469,247.00196 c 0,0 15.23892,10.71484 13.57226,25.71484 0,0 -18.00532,-6.5365 -13.57226,-25.71484 z"
       transform="matrix(0.26458333,0,0,0.26458333,-95.249987,69.46267)"
       id="rect955"
       inkscape:connector-curvature="0"
       sodipodi:nodetypes="cscccccccccccccccccccsccccccccc" />
  </g>
  <g
     inkscape:groupmode="layer"
     id="layer4"
     inkscape:label="ghirigoro"
     transform="translate(95.249987,-69.46267)">
    <path
       id="path1088-3-8"
       style="fill:#aa4839;fill-opacity:1;stroke:none;stroke-width:0.26458329;stroke-linecap:butt;stroke-linejoin:miter;stroke-miterlimit:4;stroke-dasharray:none;stroke-opacity:1"
       d="m -55.929864,239.72203 c -9.123377,-8.49757 -15.945841,-19.50082 -20.869303,-31.35867 -4.923468,-11.85784 -7.646035,-24.89487 -7.646035,-38.57968 0,-54.7392 41.18471,-95.960315 94.811752,-92.550908 53.133458,3.378027 92.21425,39.950418 92.21425,94.689618 0,13.68481 -2.722579,26.72184 -7.646039,38.57968 -4.92347,11.85785 -12.04783,22.53651 -20.85142,31.50457 -8.8036,8.96805 -25.10661,18.73323 -30.92681,21.24096 -5.82019,2.50772 -22.509559,6.29841 -30.190852,1.08192 -7.6812957,-5.21653 -15.2699075,-2.44155 -15.4407059,0.82816 -0.1707983,-1.98438 10.4125351,-1.98438 18.3500349,3.30729 7.9375,5.29167 25.183535,1.44634 31.197854,-1.0975 6.014319,-2.54385 22.861107,-12.44968 31.958338,-21.54691 9.097231,-9.09723 16.459224,-19.9297 21.54691,-31.95834 5.08768,-12.02864 7.90106,-25.25344 7.90106,-39.13535 0,-55.52762 -45.014036,-100.541659 -100.5416591,-100.541659 -55.5276229,2e-6 -100.5416569,45.014039 -100.5416569,100.541659 0,13.88191 2.813377,27.10671 7.901062,39.13535 5.087684,12.02864 12.137706,23.19038 21.565388,31.81035 31.083479,28.42042 64.4685668,-1.70186 68.4293597,-6.8809 -3.7839008,4.15936 -31.1413547,28.94722 -61.2215277,0.93036 z"
       inkscape:connector-curvature="0"
       sodipodi:nodetypes="sssssscsccscssssssscs" />
  </g>
</svg>
